<svg width="117" height="27" viewBox="0 0 117 27" fill="none" xmlns="http://www.w3.org/2000/svg">
<path d="M12.0462 26.3333V16.68L13.1928 15.1333C13.1573 16.4489 12.8906 17.5867 12.3928 18.5467C11.9128 19.4889 11.2373 20.2178 10.3661 20.7333C9.49504 21.2311 8.47282 21.48 7.29948 21.48C6.28615 21.48 5.36171 21.2933 4.52615 20.92C3.69059 20.5289 2.97059 20.0044 2.36615 19.3467C1.77948 18.6711 1.32615 17.88 1.00615 16.9733C0.703928 16.0667 0.552817 15.0889 0.552817 14.04V13.4267C0.552817 12.3778 0.712817 11.4 1.03282 10.4933C1.3706 9.58667 1.84171 8.79556 2.44615 8.12C3.06837 7.44445 3.79726 6.92 4.63282 6.54667C5.48615 6.15556 6.42837 5.96 7.45948 5.96C8.66837 5.96 9.70837 6.22667 10.5795 6.76C11.4684 7.27556 12.1617 8.03111 12.6595 9.02667C13.1573 10.0044 13.4239 11.2044 13.4595 12.6267H12.9528V6.38667H16.3395V26.3333H12.0462ZM8.55282 17.88C9.21059 17.88 9.80615 17.7378 10.3395 17.4533C10.8906 17.1511 11.3261 16.7156 11.6461 16.1467C11.9839 15.5778 12.1528 14.8933 12.1528 14.0933V13.1067C12.1528 12.3244 11.9839 11.6667 11.6461 11.1333C11.3084 10.6 10.8639 10.1911 10.3128 9.90667C9.76171 9.62222 9.17504 9.48 8.55282 9.48C7.82393 9.48 7.17504 9.66667 6.60615 10.04C6.05504 10.3956 5.61948 10.8933 5.29948 11.5333C4.97948 12.1556 4.81948 12.8933 4.81948 13.7467C4.81948 14.5822 4.97948 15.3111 5.29948 15.9333C5.61948 16.5556 6.05504 17.0356 6.60615 17.3733C7.17504 17.7111 7.82393 17.88 8.55282 17.88ZM24.6095 21.4533C22.9206 21.4533 21.6228 20.9111 20.7161 19.8267C19.8095 18.7244 19.3561 17.0711 19.3561 14.8667V6.38667H23.6228V15.08C23.6228 15.8622 23.845 16.4844 24.2895 16.9467C24.7339 17.4089 25.3295 17.64 26.0761 17.64C26.8406 17.64 27.4628 17.4 27.9428 16.92C28.4228 16.44 28.6628 15.7911 28.6628 14.9733V6.38667H32.9295V21H29.5428V14.84H29.8361C29.8361 16.3156 29.6406 17.5511 29.2495 18.5467C28.8761 19.5244 28.3161 20.2533 27.5695 20.7333C26.8228 21.2133 25.8984 21.4533 24.7961 21.4533H24.6095ZM37.0236 21V6.38667H41.2903V21H37.0236ZM35.077 9.53333V6.38667H41.2903V9.53333H35.077ZM38.677 4.94667C37.877 4.94667 37.2814 4.74222 36.8903 4.33333C36.517 3.90667 36.3303 3.37333 36.3303 2.73333C36.3303 2.07556 36.517 1.54222 36.8903 1.13333C37.2814 0.706667 37.877 0.493334 38.677 0.493334C39.477 0.493334 40.0636 0.706667 40.437 1.13333C40.8281 1.54222 41.0236 2.07556 41.0236 2.73333C41.0236 3.37333 40.8281 3.90667 40.437 4.33333C40.0636 4.74222 39.477 4.94667 38.677 4.94667ZM51.2632 21.5067C50.001 21.5067 48.8988 21.3022 47.9566 20.8933C47.0321 20.4667 46.2588 19.8978 45.6366 19.1867C45.0143 18.4756 44.5521 17.6756 44.2499 16.7867C43.9477 15.88 43.7966 14.9467 43.7966 13.9867V13.48C43.7966 12.4844 43.9566 11.5333 44.2766 10.6267C44.5966 9.70222 45.0677 8.88445 45.6899 8.17333C46.3121 7.46222 47.0855 6.90222 48.0099 6.49333C48.9521 6.08445 50.0277 5.88 51.2366 5.88C52.5521 5.88 53.7166 6.13778 54.7299 6.65333C55.7432 7.15111 56.5521 7.85333 57.1566 8.76C57.761 9.66667 58.0988 10.7067 58.1699 11.88H53.9832C53.9121 11.2222 53.6454 10.6711 53.1832 10.2267C52.7388 9.76445 52.0899 9.53333 51.2366 9.53333C50.5255 9.53333 49.9299 9.71111 49.4499 10.0667C48.9877 10.4222 48.641 10.9111 48.4099 11.5333C48.1788 12.1556 48.0632 12.8933 48.0632 13.7467C48.0632 14.5289 48.1699 15.24 48.3832 15.88C48.5966 16.5022 48.9343 16.9911 49.3966 17.3467C49.8766 17.6844 50.4988 17.8533 51.2632 17.8533C51.8321 17.8533 52.3121 17.7556 52.7032 17.56C53.1121 17.3467 53.4321 17.0622 53.6632 16.7067C53.9121 16.3333 54.0632 15.9067 54.1166 15.4267H58.2766C58.2232 16.6356 57.8854 17.7022 57.2632 18.6267C56.641 19.5333 55.8143 20.2444 54.7832 20.76C53.7521 21.2578 52.5788 21.5067 51.2632 21.5067ZM70.7653 21L66.152 14.1733H64.0986L70.0453 6.38667H74.5253L68.9253 13.64L68.9786 11.56L75.5653 21H70.7653ZM60.472 21V1.53333H64.7386V21H60.472ZM77.0264 21V1.53333H81.3197V21H77.0264ZM75.293 4.68V1.53333H81.3197V4.68H75.293ZM85.4111 21V6.38667H89.6778V21H85.4111ZM83.4645 9.53333V6.38667H89.6778V9.53333H83.4645ZM87.0645 4.94667C86.2645 4.94667 85.6689 4.74222 85.2778 4.33333C84.9045 3.90667 84.7178 3.37333 84.7178 2.73333C84.7178 2.07556 84.9045 1.54222 85.2778 1.13333C85.6689 0.706667 86.2645 0.493334 87.0645 0.493334C87.8645 0.493334 88.4511 0.706667 88.8245 1.13333C89.2156 1.54222 89.4111 2.07556 89.4111 2.73333C89.4111 3.37333 89.2156 3.90667 88.8245 4.33333C88.4511 4.74222 87.8645 4.94667 87.0645 4.94667ZM98.6374 21.4533C96.5574 21.4533 94.9307 21.0267 93.7574 20.1733C92.5841 19.32 91.9618 18.12 91.8907 16.5733H95.6774C95.7485 17.0356 96.0241 17.4533 96.5041 17.8267C97.0018 18.1822 97.7396 18.36 98.7174 18.36C99.4641 18.36 100.077 18.2356 100.557 17.9867C101.055 17.72 101.304 17.3467 101.304 16.8667C101.304 16.44 101.117 16.1022 100.744 15.8533C100.371 15.5867 99.7041 15.4 98.7441 15.2933L97.5974 15.1867C95.8374 15.0089 94.5129 14.52 93.6241 13.72C92.7529 12.92 92.3174 11.8978 92.3174 10.6533C92.3174 9.62222 92.5752 8.76 93.0907 8.06667C93.6063 7.37333 94.3174 6.84889 95.2241 6.49333C96.1485 6.13778 97.1974 5.96 98.3707 5.96C100.255 5.96 101.775 6.37778 102.931 7.21333C104.086 8.03111 104.691 9.22222 104.744 10.7867H100.957C100.886 10.3067 100.637 9.90667 100.211 9.58667C99.7841 9.24889 99.1529 9.08 98.3174 9.08C97.6596 9.08 97.1352 9.20444 96.7441 9.45333C96.3529 9.70222 96.1574 10.04 96.1574 10.4667C96.1574 10.8756 96.3263 11.1867 96.6641 11.4C97.0018 11.6133 97.5529 11.7644 98.3174 11.8533L99.4641 11.96C101.26 12.1556 102.655 12.6533 103.651 13.4533C104.646 14.2533 105.144 15.3289 105.144 16.68C105.144 17.6578 104.877 18.5111 104.344 19.24C103.811 19.9511 103.055 20.5022 102.077 20.8933C101.1 21.2667 99.9529 21.4533 98.6374 21.4533ZM114.015 21.1867C112.54 21.1867 111.348 21.0089 110.442 20.6533C109.535 20.28 108.868 19.6667 108.442 18.8133C108.033 17.9422 107.828 16.7689 107.828 15.2933V2.44H111.802V15.4533C111.802 16.1467 111.98 16.68 112.335 17.0533C112.708 17.4089 113.233 17.5867 113.908 17.5867H116.068V21.1867H114.015ZM105.615 9.50667V6.38667H116.068V9.50667H105.615Z" fill="#374151"/>
</svg>
